<?xml version="1.0" encoding="UTF-8"?>
<svg version="1.1" xmlns="http://www.w3.org/2000/svg" width="658" height="155">
<path d="M0 0 C217.14 0 434.28 0 658 0 C658 51.15 658 102.3 658 155 C440.86 155 223.72 155 0 155 C0 103.85 0 52.7 0 0 Z " fill="#FDFDFD" transform="translate(0,0)"/>
<path d="M0 0 C17.49 0 34.98 0 53 0 C53 51.15 53 102.3 53 155 C35.51 155 18.02 155 0 155 C0 103.85 0 52.7 0 0 Z " fill="#FEFEFE" transform="translate(0,0)"/>
<path d="M0 0 C9.24 0 18.48 0 28 0 C28 51.15 28 102.3 28 155 C18.76 155 9.52 155 0 155 C0 103.85 0 52.7 0 0 Z " fill="#FEFEFE" transform="translate(630,0)"/>
<path d="M0 0 C0.9075 0.37125 1.815 0.7425 2.75 1.125 C3.4925 1.41375 4.235 1.7025 5 2 C5.99 1.34 6.98 0.68 8 0 C11.30571478 -0.43660384 13.81419387 -0.71042728 16.75390625 1.05078125 C18.93804138 2.83493019 20.72909383 4.45818767 22 7 C22.08449628 8.7404417 22.10723024 10.48409722 22.09765625 12.2265625 C22.09443359 13.2578125 22.09121094 14.2890625 22.08789062 15.3515625 C22.07532227 16.97191406 22.07532227 16.97191406 22.0625 18.625 C22.05798828 19.71296875 22.05347656 20.8009375 22.04882812 21.921875 C22.03701776 24.61463789 22.02054778 27.30729188 22 30 C19.69 30 17.38 30 15 30 C14.67 23.07 14.34 16.14 14 9 C12.35 9 10.7 9 9 9 C7.41596476 10.58403524 7.78025065 12.2771638 7.68359375 14.47265625 C7.64169922 15.37177734 7.59980469 16.27089844 7.55664062 17.19726562 C7.51732422 18.14279297 7.47800781 19.08832031 7.4375 20.0625 C7.39431641 21.01189453 7.35113281 21.96128906 7.30664062 22.93945312 C7.20020724 25.29281353 7.09818992 27.64628354 7 30 C4.69 30 2.38 30 0 30 C-0.33 23.07 -0.66 16.14 -1 9 C-2.65 9 -4.3 9 -6 9 C-6.33 15.93 -6.66 22.86 -7 30 C-9.64 30 -12.28 30 -15 30 C-15 20.43 -15 10.86 -15 1 C-13.02 1 -11.04 1 -9 1 C-5.96967558 -0.51516221 -3.34885038 -0.17028053 0 0 Z " fill="#0A0A0A" transform="translate(159,66)"/>
<path d="M0 0 C4.83763525 2.32923179 7.63619663 5.18147775 10 10 C10.9021605 15.64610559 10.24179585 20.19319926 7 25 C1.90765314 29.59553253 -1.40426196 30.46728928 -8.1640625 30.4140625 C-12.71386213 29.74976669 -15.189944 27.51677667 -18 24 C-20.62560002 19.77620866 -20.68425776 14.84112366 -20 10 C-15.76913806 1.37555065 -9.20686906 -1.46950027 0 0 Z " fill="#090909" transform="translate(270,66)"/>
<path d="M0 0 C5.15699505 2.34408866 8.03494081 5.76720193 10 11 C10.85469676 16.87604022 9.31187254 21.21387699 6 26 C2.41940533 29.49326309 -0.57143594 30.31837131 -5.4375 30.625 C-10.46005924 30.44024646 -13.20711904 29.22114549 -16.6953125 25.6328125 C-20.0710663 21.40806673 -20.39431319 17.40677465 -20.24609375 12.140625 C-19.73483098 7.6934504 -17.3868762 5.43523573 -14.5 2.1875 C-10.20607699 -1.20469918 -5.1836159 -0.81887226 0 0 Z " fill="#080808" transform="translate(413,66)"/>
<path d="M0 0 C2.31 0 4.62 0 7 0 C7.33 6.6 7.66 13.2 8 20 C9.65 20.33 11.3 20.66 13 21 C14.58403524 19.41596476 14.21974935 17.7228362 14.31640625 15.52734375 C14.35830078 14.62822266 14.40019531 13.72910156 14.44335938 12.80273438 C14.48267578 11.85720703 14.52199219 10.91167969 14.5625 9.9375 C14.60568359 8.98810547 14.64886719 8.03871094 14.69335938 7.06054688 C14.79979276 4.70718647 14.90181008 2.35371646 15 0 C17.31 0 19.62 0 22 0 C22.33 6.6 22.66 13.2 23 20 C24.65 20.33 26.3 20.66 28 21 C29.58403524 19.41596476 29.21974935 17.7228362 29.31640625 15.52734375 C29.35830078 14.62822266 29.40019531 13.72910156 29.44335938 12.80273438 C29.48267578 11.85720703 29.52199219 10.91167969 29.5625 9.9375 C29.60568359 8.98810547 29.64886719 8.03871094 29.69335938 7.06054688 C29.79979276 4.70718647 29.90181008 2.35371646 30 0 C32.31 0 34.62 0 37 0 C37.08741124 3.56234428 37.14052896 7.12441108 37.1875 10.6875 C37.21263672 11.69490234 37.23777344 12.70230469 37.26367188 13.74023438 C37.35691643 23.1579348 37.35691643 23.1579348 34 27 C30.7513419 29.16577207 29.81398653 29.24955466 26.0625 29.1875 C25.20785156 29.18105469 24.35320312 29.17460938 23.47265625 29.16796875 C21 29 21 29 18.74609375 28.42578125 C18.16988281 28.28527344 17.59367187 28.14476563 17 28 C16.67 28.33 16.34 28.66 16 29 C12.61813005 29.43839055 9.37729102 29.48172213 6 29 C3.17575712 26.80977082 1.58491397 25.16982793 0 22 C-0.08426094 20.3325394 -0.10725143 18.66174813 -0.09765625 16.9921875 C-0.09443359 16.00605469 -0.09121094 15.01992187 -0.08789062 14.00390625 C-0.07951172 12.97136719 -0.07113281 11.93882813 -0.0625 10.875 C-0.05798828 9.83472656 -0.05347656 8.79445313 -0.04882812 7.72265625 C-0.03701952 5.14838038 -0.02055075 2.57421854 0 0 Z " fill="#030303" transform="translate(284,67)"/>
<path d="M0 0 C1.921875 1.09765625 1.921875 1.09765625 4.796875 3.09765625 C4.29002064 7.451996 2.91536093 9.50767565 -0.078125 12.66015625 C-2.63158463 15.37850718 -5.02036895 18.07062664 -7.203125 21.09765625 C-3.82849785 20.55041942 -2.120775 20.04275625 0.796875 18.09765625 C2.859375 19.84765625 2.859375 19.84765625 4.796875 22.09765625 C4.859375 24.16015625 4.859375 24.16015625 3.796875 26.09765625 C-0.09618947 29.73118309 -4.48044462 29.6020259 -9.54296875 29.4453125 C-13.3580455 28.9467195 -15.42700718 27.73496818 -18.203125 25.09765625 C-21.96839824 19.95178283 -22.02566887 14.23931716 -21.203125 8.09765625 C-17.08343059 -0.44689512 -8.91942215 -3.65316758 0 0 Z " fill="#070707" transform="translate(536.203125,66.90234375)"/>
<path d="M0 0 C2.31 0 4.62 0 7 0 C7.33 7.92 7.66 15.84 8 24 C9.485 22.02 10.97 20.04 12.5 18 C16.98076845 12.33214574 16.98076845 12.33214574 20.4453125 11.203125 C22.625 11.25 22.625 11.25 26 12 C23.71461395 16.08963819 21.04293074 19.46362104 18 23 C19.478352 27.0318691 21.42159014 30.56858271 23.625 34.25 C27 39.89795918 27 39.89795918 27 41 C24.03 41 21.06 41 18 41 C17.49339844 40.04287109 17.49339844 40.04287109 16.9765625 39.06640625 C16.30753906 37.82697266 16.30753906 37.82697266 15.625 36.5625 C15.18414062 35.73878906 14.74328125 34.91507813 14.2890625 34.06640625 C13.16581441 31.86533422 13.16581441 31.86533422 11 31 C9.26337666 34.22515763 8.1094072 37.51329166 7 41 C4.69 41 2.38 41 0 41 C0 27.47 0 13.94 0 0 Z " fill="#040404" transform="translate(350,55)"/>
<path d="M0 0 C3.58210348 2.36950886 7.05546938 5.11093875 9 9 C9.08400529 10.59447464 9.10727467 12.19240545 9.09765625 13.7890625 C9.09443359 14.73007813 9.09121094 15.67109375 9.08789062 16.640625 C9.07951172 17.62546875 9.07113281 18.6103125 9.0625 19.625 C9.05798828 20.61757812 9.05347656 21.61015625 9.04882812 22.6328125 C9.03702145 25.0886016 9.020554 27.54427104 9 30 C6.36 30 3.72 30 1 30 C0.97494385 29.39937744 0.9498877 28.79875488 0.92407227 28.17993164 C0.8084472 25.47388563 0.68557064 22.76821717 0.5625 20.0625 C0.52318359 19.11697266 0.48386719 18.17144531 0.44335938 17.19726562 C0.40146484 16.29814453 0.35957031 15.39902344 0.31640625 14.47265625 C0.27974854 13.64000244 0.24309082 12.80734863 0.20532227 11.94946289 C0.20632897 9.99661142 0.20632897 9.99661142 -1 9 C-3.95817107 8.74994614 -3.95817107 8.74994614 -7 9 C-9.3968665 11.3968665 -9.28281133 12.07028314 -9.4140625 15.3515625 C-9.45273437 16.20234375 -9.49140625 17.053125 -9.53125 17.9296875 C-9.5621875 18.81914063 -9.593125 19.70859375 -9.625 20.625 C-9.68300781 21.97078125 -9.68300781 21.97078125 -9.7421875 23.34375 C-9.83659357 25.5622927 -9.92216748 27.78082403 -10 30 C-12.31 30 -14.62 30 -17 30 C-17 20.43 -17 10.86 -17 1 C-14.525 1.495 -14.525 1.495 -12 2 C-11.401875 1.690625 -10.80375 1.38125 -10.1875 1.0625 C-6.77011064 -0.59737483 -3.64209308 -0.88591453 0 0 Z " fill="#0A0A0A" transform="translate(502,66)"/>
<path d="M0 0 C3.48088316 1.3195971 6.24203934 3.1177548 8.69140625 5.96875 C10.66544394 10.54144627 10.31635768 14.89277971 10.1875 19.8125 C10.16719727 21.28106445 10.16719727 21.28106445 10.14648438 22.77929688 C10.11125312 25.18676625 10.06199265 27.59309564 10 30 C7.69 30 5.38 30 3 30 C2.98018066 29.43490723 2.96036133 28.86981445 2.93994141 28.28759766 C2.84481764 25.73292003 2.73508942 23.17907459 2.625 20.625 C2.5940625 19.73554687 2.563125 18.84609375 2.53125 17.9296875 C2.49257813 17.07890625 2.45390625 16.228125 2.4140625 15.3515625 C2.36693115 14.17327881 2.36693115 14.17327881 2.31884766 12.97119141 C2.1600535 10.76997061 2.1600535 10.76997061 0 9 C-3 8.66666667 -3 8.66666667 -6 9 C-8.3968665 11.3968665 -8.28281133 12.07028314 -8.4140625 15.3515625 C-8.45273437 16.20234375 -8.49140625 17.053125 -8.53125 17.9296875 C-8.5621875 18.81914063 -8.593125 19.70859375 -8.625 20.625 C-8.68300781 21.97078125 -8.68300781 21.97078125 -8.7421875 23.34375 C-8.83659357 25.5622927 -8.92216748 27.78082403 -9 30 C-11.31 30 -13.62 30 -16 30 C-16 20.43 -16 10.86 -16 1 C-13.03 1.495 -13.03 1.495 -10 2 C-6.22786948 -0.51475368 -4.47964158 -0.44796416 0 0 Z " fill="#050505" transform="translate(443,66)"/>
<path d="M0 0 C1.64453125 0.98828125 1.64453125 0.98828125 4.01953125 3.23828125 C4.01953125 7.23828125 4.01953125 7.23828125 2.64453125 8.98828125 C1.01953125 10.23828125 1.01953125 10.23828125 -0.98046875 10.23828125 C-0.98046875 9.57828125 -0.98046875 8.91828125 -0.98046875 8.23828125 C-6.46891863 6.93398117 -6.46891863 6.93398117 -11.48046875 8.73828125 C-13.51338088 12.12646813 -13.47489314 14.35351819 -12.98046875 18.23828125 C-11.99997937 20.3023081 -11.99997937 20.3023081 -9.98046875 21.23828125 C-6.98046875 21.73828125 -6.98046875 21.73828125 -3.98046875 21.23828125 C-2.10156441 19.86322026 -2.10156441 19.86322026 -0.98046875 18.23828125 C1.64140619 19.28703123 2.81324486 19.88759438 4.26953125 22.36328125 C4.51703125 22.98203125 4.76453125 23.60078125 5.01953125 24.23828125 C2.23999416 27.24318622 0.46633854 28.97892765 -3.6171875 29.7109375 C-9.52847585 29.89642131 -13.48800868 29.40202473 -17.98046875 25.23828125 C-21.59126882 21.15237591 -22.6857724 17.88255838 -22.43359375 12.55078125 C-21.43088017 7.43348435 -18.57780738 3.69870514 -14.79296875 0.23828125 C-9.99437923 -1.46788391 -4.82441336 -1.8555436 0 0 Z " fill="#090909" transform="translate(219.98046875,66.76171875)"/>
<path d="M0 0 C2.64 0 5.28 0 8 0 C8 13.53 8 27.06 8 41 C5.36 41 2.72 41 0 41 C0 27.47 0 13.94 0 0 Z " fill="#131313" transform="translate(458,55)"/>
<path d="M0 0 C0.99 0 1.98 0 3 0 C3.33 0.66 3.66 1.32 4 2 C4.70511719 1.67257813 5.41023438 1.34515625 6.13671875 1.0078125 C9.23867167 -0.08400722 11.54006053 -0.20385396 14.8125 -0.125 C16.27623047 -0.09792969 16.27623047 -0.09792969 17.76953125 -0.0703125 C18.50558594 -0.04710938 19.24164063 -0.02390625 20 0 C20 2.31 20 4.62 20 7 C19.37351562 7.04898438 18.74703125 7.09796875 18.1015625 7.1484375 C17.28429687 7.22320312 16.46703125 7.29796875 15.625 7.375 C14.81289063 7.44460937 14.00078125 7.51421875 13.1640625 7.5859375 C10.79665809 7.82892588 10.79665809 7.82892588 9 10 C8.63105418 12.03060659 8.63105418 12.03060659 8.5859375 14.3515625 C8.52792969 15.62773438 8.52792969 15.62773438 8.46875 16.9296875 C8.42234375 18.26386719 8.42234375 18.26386719 8.375 19.625 C8.31699219 20.97078125 8.31699219 20.97078125 8.2578125 22.34375 C8.16340643 24.5622927 8.07783252 26.78082403 8 29 C5.36 29 2.72 29 0 29 C0 19.43 0 9.86 0 0 Z " fill="#0E0E0E" transform="translate(326,67)"/>
<path d="M0 0 C2.475 0.99 2.475 0.99 5 2 C6.99786055 1.1470525 6.99786055 1.1470525 9 0 C11.796875 -0.1953125 11.796875 -0.1953125 14.75 -0.125 C15.73484375 -0.10695313 16.7196875 -0.08890625 17.734375 -0.0703125 C18.85585937 -0.03550781 18.85585937 -0.03550781 20 0 C20 2.31 20 4.62 20 7 C19.37351563 7.04898438 18.74703125 7.09796875 18.1015625 7.1484375 C17.28429687 7.22320312 16.46703125 7.29796875 15.625 7.375 C14.81289062 7.44460937 14.00078125 7.51421875 13.1640625 7.5859375 C10.79665809 7.82892588 10.79665809 7.82892588 9 10 C8.63105418 12.03060659 8.63105418 12.03060659 8.5859375 14.3515625 C8.52792969 15.62773438 8.52792969 15.62773438 8.46875 16.9296875 C8.42234375 18.26386719 8.42234375 18.26386719 8.375 19.625 C8.31699219 20.97078125 8.31699219 20.97078125 8.2578125 22.34375 C8.16340643 24.5622927 8.07783252 26.78082403 8 29 C5.36 29 2.72 29 0 29 C0 19.43 0 9.86 0 0 Z " fill="#0E0E0E" transform="translate(229,67)"/>
<path d="M0 0 C2.64 0 5.28 0 8 0 C8 9.57 8 19.14 8 29 C5.36 29 2.72 29 0 29 C0 19.43 0 9.86 0 0 Z " fill="#131313" transform="translate(471,67)"/>
<path d="M0 0 C2.31 0 4.62 0 7 0 C7 9.57 7 19.14 7 29 C4.69 29 2.38 29 0 29 C0 19.43 0 9.86 0 0 Z " fill="#010101" transform="translate(187,67)"/>
<path d="M0 0 C4.93731454 1.46290801 4.93731454 1.46290801 6.375 4 C6.90610151 8.0970688 6.760629 10.30290142 4.75 13.9375 C2.375 16 2.375 16 -0.5625 16.625 C-4.68134831 15.78441871 -6.14377621 14.35694984 -8.625 11 C-9.25 8 -9.25 8 -8.625 5 C-5.91953265 1.14675862 -4.77773264 0 0 0 Z " fill="#F3F3F3" transform="translate(408.625,73)"/>
<path d="M0 0 C3.4375 0.9375 3.4375 0.9375 5.375 2 C7.12970303 5.19975258 7.064352 8.4369894 6.4375 11.9375 C4.8125 14.4375 4.8125 14.4375 2.4375 15.9375 C-1.16396865 16.53774477 -2.84109404 16.39312482 -5.9375 14.4375 C-8.22012005 10.92577684 -8.37103347 8.01350894 -7.5625 3.9375 C-5.3173484 0.25545138 -4.33137369 -0.07598901 0 0 Z " fill="#F7F7F7" transform="translate(265.5625,73.0625)"/>
<path d="M0 0 C2 2 2 2 2.3125 4.4375 C2 7 2 7 0.8125 8.875 C-1 10 -1 10 -3.5625 9.8125 C-6 9 -6 9 -8 7 C-7.75 3.9375 -7.75 3.9375 -7 1 C-4.48718205 -0.25640898 -2.78302919 -0.20872719 0 0 Z " fill="#0E0E0E" transform="translate(478,54)"/>
<path d="M0 0 C2.5 0.25 2.5 0.25 4.5 2.25 C4.8125 5.25 4.8125 5.25 4.5 8.25 C1.5 10.25 1.5 10.25 -1.125 9.9375 C-3.5 9.25 -3.5 9.25 -4.5 8.25 C-4.6875 5.3125 -4.6875 5.3125 -4.5 2.25 C-2.5 0.25 -2.5 0.25 0 0 Z " fill="#0A0A0A" transform="translate(190.5,53.75)"/>
<path d="M0 0 C3.0625 0.1875 3.0625 0.1875 5.0625 2.1875 C4.6875 5.3125 4.6875 5.3125 4.0625 8.1875 C1.1875 8.8125 1.1875 8.8125 -1.9375 9.1875 C-3.9375 7.1875 -3.9375 7.1875 -4.125 4.125 C-3.8775 0.2475 -3.8775 0.2475 0 0 Z " fill="#101010" transform="translate(383.9375,88.8125)"/>
<path d="M0 0 C-1.48868707 4.60139641 -3.74629855 7.50227094 -7 11 C-7.66 11 -8.32 11 -9 11 C-9.47661072 6.90114782 -9.3448928 5.44069635 -6.75 2.125 C-4 0 -4 0 0 0 Z " fill="#E5E5E5" transform="translate(531,73)"/>
</svg>
