<svg xmlns:dc="http://purl.org/dc/elements/1.1/" xmlns:cc="http://creativecommons.org/ns#" xmlns:rdf="http://www.w3.org/1999/02/22-rdf-syntax-ns#" xmlns:svg="http://www.w3.org/2000/svg" xmlns="http://www.w3.org/2000/svg" xmlns:xlink="http://www.w3.org/1999/xlink" id="svg483994" viewBox="0 0 1024 768" height="768px" width="1024px" version="1.1">
  <metadata id="metadata484000">
    <rdf:rdf>
      <cc:work rdf:about="">
        <dc:format>image/svg+xml</dc:format>
        <dc:type rdf:resource="http://purl.org/dc/dcmitype/StillImage"></dc:type>
      </cc:work>
    </rdf:rdf>
  </metadata>
  <defs id="defs483998"></defs>
  <linearGradient spreadMethod="pad" y2="30%" x2="-10%" y1="120%" x1="30%" id="3d_gradient2-logo-b47508ed-535b-449c-89ec-75750e2e2851">
    <stop id="stop483975" stop-opacity="1" stop-color="#ffffff" offset="0%"></stop>
    <stop id="stop483977" stop-opacity="1" stop-color="#000000" offset="100%"></stop>
  </linearGradient>
  <linearGradient gradientTransform="rotate(-30)" spreadMethod="pad" y2="30%" x2="-10%" y1="120%" x1="30%" id="3d_gradient3-logo-b47508ed-535b-449c-89ec-75750e2e2851">
    <stop id="stop483980" stop-opacity="1" stop-color="#ffffff" offset="0%"></stop>
    <stop id="stop483982" stop-opacity="1" stop-color="#cccccc" offset="50%"></stop>
    <stop id="stop483984" stop-opacity="1" stop-color="#000000" offset="100%"></stop>
  </linearGradient>
  <g id="logo-group">
    <image xlink:href="" id="container" x="272" y="144" width="480" height="480" style="display: none;" transform="translate(0 0)"></image>
    <g id="logo-center" transform="translate(110.99549999999999 0)">
      <image xlink:href="" id="icon_container" x="0" y="0" style="display: none;"></image>
      <g id="slogan" style="font-style:normal;font-weight:700;font-size:32px;line-height:1;font-family:'Brandmark1 Bold Color';font-variant-ligatures:none;text-align:center;text-anchor:middle" transform="translate(0 0)"></g>
      <g id="title" style="font-style:normal;font-weight:700;font-size:72px;line-height:1;font-family:'Brandmark1 Bold Color';font-variant-ligatures:normal;text-align:center;text-anchor:middle" transform="translate(0 0)">
        <g id="path484003" aria-label="M" transform="translate(0 324.63100000000003) translate(50 10.417999999999992) scale(1.75) translate(-314.79256 53.64)"> <path class="c1" d="M116.38086,95.7229l-12.80273,22.0625H96.4209L83.69043,95.84546v32.23682H72.31348V71.91772h10.3252 l17.39746,30.60254l17.39648-30.60254h10.25391v56.16455h-11.30566V95.7229z" transform="translate(242.47908 -125.55772)" stroke-width="0" stroke-linejoin="miter" stroke-miterlimit="2" fill="#1a1a1a" stroke="#1a1a1a"></path> </g>
        <g id="path484005" aria-label="I" transform="translate(0 324.63100000000003) translate(160.88000000000005 10.417999999999992) scale(1.75) translate(-378.15256 53.64)"> <path class="c1" d="M94.34741,75.51758l11.30518-3.6001v56.16504H94.34741V75.51758z" transform="translate(283.80515 -125.55748)" stroke-width="0" stroke-linejoin="miter" stroke-miterlimit="2" fill="#1a1a1a" stroke="#1a1a1a"></path> </g>
        <g id="path484007" aria-label="C" transform="translate(0 324.63100000000003) translate(190.79712500000014 9.284000000000006) scale(1.75) translate(-395.24806 54.288)"> <path class="c1" d="M91.27637,126.36865c-3.40576-1.44043-6.46631-3.50684-9.09424-6.13477 c-2.62842-2.62793-4.6875-5.68848-6.13477-9.09473c-1.49072-3.52783-2.25391-7.27979-2.25391-11.13916 s0.75586-7.61084,2.25391-11.13916c1.43994-3.40625,3.50635-6.46631,6.13477-9.09473 c2.62793-2.62793,5.68848-4.6875,9.09424-6.13477c3.52881-1.49756,7.27979-2.25391,11.13916-2.25391 c9.5625,0,18.45508,4.74561,23.79102,12.70215l-9.38965,6.29346c-3.22559-4.81738-8.61133-7.69043-14.40137-7.69043 c-4.62207,0-8.97168,1.80029-12.24805,5.06934S85.09814,95.37744,85.09814,100c0,4.62305,1.80029,8.97217,5.06934,12.24854 c3.26855,3.26953,7.61816,5.06836,12.24805,5.06836c5.76074,0,11.13281-2.85742,14.36523-7.63867l9.36816,6.32813 c-5.33594,7.90039-14.20703,12.61621-23.7334,12.61621C98.55615,128.62256,94.80518,127.8667,91.27637,126.36865z" transform="translate(321.45461 -125.66542)" stroke-width="0" stroke-linejoin="miter" stroke-miterlimit="2" fill="#1a1a1a" stroke="#1a1a1a"></path> </g>
        <g id="path484009" aria-label="R" transform="translate(0 324.63100000000003) translate(286.0039150000001 10.417999999999992) scale(1.75) translate(-449.65194 53.64)"> <path class="c1" d="M121.90405,128.08252h-13.65918l-13.37109-19.27637V97.83984h2.16016 c3.40527,0,5.9541-0.74902,7.56738-2.23242c1.38281-1.27441,2.08105-3.11084,2.08105-5.47266 c0-2.4624-0.71973-4.33447-2.13867-5.55859c-1.4541-1.26025-3.75879-1.92969-6.64648-1.92969h-8.49609v45.43604H78.09595V71.91748 h20.66553c3.16113,0,6.0127,0.45361,8.48926,1.34619c2.44141,0.88574,4.5293,2.21094,6.20703,3.93164 c3.10352,3.18994,4.74512,7.71191,4.74512,13.0835c0,4.81738-1.33203,8.79932-3.95996,11.83789 c-1.8291,2.10986-4.24121,3.72266-7.2002,4.81006L121.90405,128.08252z" transform="translate(371.55599 -125.55748)" stroke-width="0" stroke-linejoin="miter" stroke-miterlimit="2" fill="#1a1a1a" stroke="#1a1a1a"></path> </g>
        <g id="path484011" aria-label="O" transform="translate(0 324.63100000000003) translate(359.60562500000003 9.787999999999997) scale(1.75) translate(-491.71006 54)"> <path class="c1" d="M88.93994,126.17456c-3.38477-1.43311-6.42285-3.47803-9.02979-6.08447 c-2.60645-2.60693-4.65137-5.64551-6.08447-9.02979c-1.4834-3.50684-2.23242-7.22949-2.23242-11.06006 s0.74902-7.55371,2.23242-11.06006c1.43311-3.38428,3.47803-6.42334,6.08447-9.02979 c2.60693-2.60645,5.64502-4.65137,9.02979-6.08447c3.50684-1.4834,7.22949-2.23242,11.05957-2.23242 c3.83105,0,7.55371,0.74902,11.06055,2.23242c3.38477,1.43311,6.42285,3.47803,9.0293,6.08447 c2.60742,2.60645,4.65234,5.64551,6.08496,9.02979c1.4834,3.50635,2.23242,7.22949,2.23242,11.06006 s-0.74902,7.55322-2.23242,11.06006c-1.43262,3.38428-3.47754,6.42285-6.08496,9.02979 c-2.60645,2.60645-5.64453,4.65137-9.0293,6.08447c-3.50684,1.4834-7.22949,2.23193-11.06055,2.23193 C96.16943,128.40649,92.44678,127.65796,88.93994,126.17456z M87.90283,87.9104c-3.2334,3.23291-5.01172,7.52441-5.01172,12.09717 c0,4.57227,1.77832,8.86377,5.01172,12.09668c3.2334,3.2334,7.52441,5.01172,12.09668,5.01172 c4.57324,0,8.86426-1.77832,12.09766-5.01172c3.23242-3.23291,5.01172-7.52441,5.01172-12.09668 c0-4.57275-1.7793-8.86426-5.01172-12.09717c-3.2334-3.23291-7.53223-5.01172-12.09766-5.01172 C95.43506,82.89868,91.13623,84.67749,87.90283,87.9104z" transform="translate(420.1168 -125.5935)" stroke-width="0" stroke-linejoin="miter" stroke-miterlimit="2" fill="#1a1a1a" stroke="#1a1a1a"></path> </g>
        <g id="path484013" aria-label="W" transform="translate(0 324.63100000000003) translate(454.1312275 10.417999999999992) scale(1.75) translate(-545.72469 53.64)"> <path class="c1" d="M100.05078,92.5542l-10.1748,35.52832h-9.79297L62.2041,71.91748h12.01074l10.7002,34.80762 l9.79297-34.80762h10.65625l9.73535,34.75l10.76465-34.75h11.93164l-17.95117,56.16504h-9.7998L100.05078,92.5542z" transform="translate(483.52059 -125.55748)" stroke-width="0" stroke-linejoin="miter" stroke-miterlimit="2" fill="#1a1a1a" stroke="#1a1a1a"></path> </g>
        <g id="path484015" aria-label="R" transform="translate(0 324.63100000000003) translate(591.1601649999999 10.417999999999992) scale(1.75) translate(-624.02694 53.64)"> <path class="c1" d="M121.90405,128.08252h-13.65918l-13.37109-19.27637V97.83984h2.16016 c3.40527,0,5.9541-0.74902,7.56738-2.23242c1.38281-1.27441,2.08105-3.11084,2.08105-5.47266 c0-2.4624-0.71973-4.33447-2.13867-5.55859c-1.4541-1.26025-3.75879-1.92969-6.64648-1.92969h-8.49609v45.43604H78.09595V71.91748 h20.66553c3.16113,0,6.0127,0.45361,8.48926,1.34619c2.44141,0.88574,4.5293,2.21094,6.20703,3.93164 c3.10352,3.18994,4.74512,7.71191,4.74512,13.0835c0,4.81738-1.33203,8.79932-3.95996,11.83789 c-1.8291,2.10986-4.24121,3.72266-7.2002,4.81006L121.90405,128.08252z" transform="translate(545.93099 -125.55748)" stroke-width="0" stroke-linejoin="miter" stroke-miterlimit="2" fill="#1a1a1a" stroke="#1a1a1a"></path> </g>
        <g id="path484017" aria-label="K" transform="translate(0 324.63100000000003) translate(672.125 10.417999999999992) scale(1.75) translate(-670.29256 53.64)"> <polygon class="c1" points="108.10376,71.91748 88.48218,95.62207 88.48218,71.91748 77.17749,71.91748 77.17749,128.08252 88.48218,128.08252 88.48218,112.30518 122.80005,71.91748 " transform="translate(593.11507 -125.55748)" stroke-width="0" stroke-linejoin="miter" stroke-miterlimit="2" fill="#1a1a1a" stroke="#1a1a1a"></polygon> <polygon class="c3" points="112.71143,114.24286 98.67279,114.24286 108.73071,128.08252 122.82251,128.08252 " transform="translate(593.11507 -125.55748)" stroke-width="0" stroke-linejoin="miter" stroke-miterlimit="2" fill="#afab90" stroke="#afab90"></polygon> </g>
              </g>
      <image xlink:href="" id="icon" x="0" y="0" style="display: none;"></image>
    </g>
  </g>
</svg>